<mxfile host="app.diagrams.net" agent="Mozilla/5.0 (Windows NT 10.0; Win64; x64) AppleWebKit/537.36 (KHTML, like Gecko) Chrome/134.0.0.0 Safari/537.36 OPR/119.0.0.0" version="27.1.6">
  <diagram name="Page-1" id="TTR6GGSc-4GA_I6Nb3Tj">
    <mxGraphModel dx="1611" dy="777" grid="1" gridSize="10" guides="1" tooltips="1" connect="1" arrows="1" fold="1" page="1" pageScale="1" pageWidth="827" pageHeight="1169" math="0" shadow="0">
      <root>
        <mxCell id="0" />
        <mxCell id="1" parent="0" />
        <mxCell id="qJixh4uQCU1VtoAmQLQG-10" value="" style="edgeStyle=orthogonalEdgeStyle;rounded=0;orthogonalLoop=1;jettySize=auto;html=1;" edge="1" parent="1" source="qJixh4uQCU1VtoAmQLQG-1" target="qJixh4uQCU1VtoAmQLQG-2">
          <mxGeometry relative="1" as="geometry" />
        </mxCell>
        <mxCell id="qJixh4uQCU1VtoAmQLQG-1" value="inicio" style="ellipse;whiteSpace=wrap;html=1;" vertex="1" parent="1">
          <mxGeometry x="340" y="10" width="120" height="80" as="geometry" />
        </mxCell>
        <mxCell id="qJixh4uQCU1VtoAmQLQG-11" value="" style="edgeStyle=orthogonalEdgeStyle;rounded=0;orthogonalLoop=1;jettySize=auto;html=1;" edge="1" parent="1" source="qJixh4uQCU1VtoAmQLQG-2" target="qJixh4uQCU1VtoAmQLQG-3">
          <mxGeometry relative="1" as="geometry" />
        </mxCell>
        <mxCell id="qJixh4uQCU1VtoAmQLQG-2" value="Solicitar datos al usuario" style="shape=parallelogram;perimeter=parallelogramPerimeter;whiteSpace=wrap;html=1;fixedSize=1;" vertex="1" parent="1">
          <mxGeometry x="310" y="130" width="180" height="50" as="geometry" />
        </mxCell>
        <mxCell id="qJixh4uQCU1VtoAmQLQG-12" value="" style="edgeStyle=orthogonalEdgeStyle;rounded=0;orthogonalLoop=1;jettySize=auto;html=1;" edge="1" parent="1" source="qJixh4uQCU1VtoAmQLQG-3" target="qJixh4uQCU1VtoAmQLQG-4">
          <mxGeometry relative="1" as="geometry" />
        </mxCell>
        <mxCell id="qJixh4uQCU1VtoAmQLQG-3" value="Convertir datos a minusculas" style="shape=process;whiteSpace=wrap;html=1;backgroundOutline=1;" vertex="1" parent="1">
          <mxGeometry x="295" y="220" width="210" height="50" as="geometry" />
        </mxCell>
        <mxCell id="qJixh4uQCU1VtoAmQLQG-13" value="" style="edgeStyle=orthogonalEdgeStyle;rounded=0;orthogonalLoop=1;jettySize=auto;html=1;" edge="1" parent="1" source="qJixh4uQCU1VtoAmQLQG-4" target="qJixh4uQCU1VtoAmQLQG-5">
          <mxGeometry relative="1" as="geometry" />
        </mxCell>
        <mxCell id="qJixh4uQCU1VtoAmQLQG-4" value="Eliminar espacios al princio y final" style="shape=process;whiteSpace=wrap;html=1;backgroundOutline=1;" vertex="1" parent="1">
          <mxGeometry x="295" y="300" width="210" height="50" as="geometry" />
        </mxCell>
        <mxCell id="qJixh4uQCU1VtoAmQLQG-14" value="" style="edgeStyle=orthogonalEdgeStyle;rounded=0;orthogonalLoop=1;jettySize=auto;html=1;" edge="1" parent="1" source="qJixh4uQCU1VtoAmQLQG-5" target="qJixh4uQCU1VtoAmQLQG-6">
          <mxGeometry relative="1" as="geometry" />
        </mxCell>
        <mxCell id="qJixh4uQCU1VtoAmQLQG-5" value="Dividir cadena en palabras" style="shape=process;whiteSpace=wrap;html=1;backgroundOutline=1;" vertex="1" parent="1">
          <mxGeometry x="295" y="400" width="210" height="50" as="geometry" />
        </mxCell>
        <mxCell id="qJixh4uQCU1VtoAmQLQG-15" value="" style="edgeStyle=orthogonalEdgeStyle;rounded=0;orthogonalLoop=1;jettySize=auto;html=1;" edge="1" parent="1" source="qJixh4uQCU1VtoAmQLQG-6" target="qJixh4uQCU1VtoAmQLQG-7">
          <mxGeometry relative="1" as="geometry" />
        </mxCell>
        <mxCell id="qJixh4uQCU1VtoAmQLQG-6" value="Filtrar palabras de &amp;gt;3 letras" style="shape=process;whiteSpace=wrap;html=1;backgroundOutline=1;" vertex="1" parent="1">
          <mxGeometry x="295" y="500" width="210" height="50" as="geometry" />
        </mxCell>
        <mxCell id="qJixh4uQCU1VtoAmQLQG-16" value="" style="edgeStyle=orthogonalEdgeStyle;rounded=0;orthogonalLoop=1;jettySize=auto;html=1;" edge="1" parent="1" source="qJixh4uQCU1VtoAmQLQG-7" target="qJixh4uQCU1VtoAmQLQG-8">
          <mxGeometry relative="1" as="geometry" />
        </mxCell>
        <mxCell id="qJixh4uQCU1VtoAmQLQG-7" value="Ordenar palabras alfabeticamente" style="shape=process;whiteSpace=wrap;html=1;backgroundOutline=1;" vertex="1" parent="1">
          <mxGeometry x="295" y="600" width="210" height="50" as="geometry" />
        </mxCell>
        <mxCell id="qJixh4uQCU1VtoAmQLQG-17" value="" style="edgeStyle=orthogonalEdgeStyle;rounded=0;orthogonalLoop=1;jettySize=auto;html=1;" edge="1" parent="1" source="qJixh4uQCU1VtoAmQLQG-8" target="qJixh4uQCU1VtoAmQLQG-9">
          <mxGeometry relative="1" as="geometry" />
        </mxCell>
        <mxCell id="qJixh4uQCU1VtoAmQLQG-8" value="Return lista resultante" style="shape=document;whiteSpace=wrap;html=1;boundedLbl=1;" vertex="1" parent="1">
          <mxGeometry x="325" y="700" width="150" height="80" as="geometry" />
        </mxCell>
        <mxCell id="qJixh4uQCU1VtoAmQLQG-9" value="Fin" style="ellipse;whiteSpace=wrap;html=1;" vertex="1" parent="1">
          <mxGeometry x="340" y="820" width="120" height="80" as="geometry" />
        </mxCell>
      </root>
    </mxGraphModel>
  </diagram>
</mxfile>
